<svg xmlns="http://www.w3.org/2000/svg" version="1.1" xmlns:xlink="http://www.w3.org/1999/xlink" xmlns:svgjs="http://svgjs.com/svgjs" width="1000" height="1000"><g transform="matrix(1,0,0,1,0,0)"><svg xmlns="http://www.w3.org/2000/svg" version="1.1" xmlns:xlink="http://www.w3.org/1999/xlink" xmlns:svgjs="http://svgjs.com/svgjs" width="100%" height="100%"><svg height="100%" stroke-miterlimit="10" style="fill-rule:nonzero;clip-rule:evenodd;stroke-linecap:round;stroke-linejoin:round;" version="1.1" viewBox="17 13 16.001 15" width="100%" xml:space="preserve" xmlns="http://www.w3.org/2000/svg" xmlns:xlink="http://www.w3.org/1999/xlink">
<defs></defs>
<g id="Eyes-copy">
<path d="M25 27L28 27L28 28L25 28L25 27Z" fill="#f4be82" fill-rule="nonzero" opacity="1" stroke="none"></path>
<path d="M22 26L29 26L29 27L22 27L22 26Z" fill="#f4be82" fill-rule="nonzero" opacity="1" stroke="none"></path>
<path d="M21 24.9953L30 24.9953L30 26L21 26L21 24.9953Z" fill="#f4be82" fill-rule="nonzero" opacity="1" stroke="none"></path>
<path d="M20 24L31 24L31 25L20 25L20 24Z" fill="#f4be82" fill-rule="nonzero" opacity="1" stroke="none"></path>
<path d="M20 16L21 16L21 24L20 24L20 16Z" fill="#f4be82" fill-rule="nonzero" opacity="1" stroke="none"></path>
<path d="M30 16L31 16L31 24L30 24L30 16Z" fill="#f4be82" fill-rule="nonzero" opacity="1" stroke="none"></path>
<path d="M21 16L30 16L30 17L21 17L21 16Z" fill="#f4be82" fill-rule="nonzero" opacity="1" stroke="none"></path>
<path d="M21 17L30 17L30 24L21 24L21 17Z" fill="#f4be82" fill-rule="nonzero" opacity="1" stroke="none"></path>
<path d="M21 15L31 15L31 16L21 16L21 15Z" fill="#f4be82" fill-rule="nonzero" opacity="1" stroke="none"></path>
<path d="M22 14.0021L30 14.0021L30 15L22 15L22 14.0021Z" fill="#f4be82" fill-rule="nonzero" opacity="1" stroke="none"></path>
<path d="M19.0035 15L21 15L21 16L19.0035 16L19.0035 15Z" fill="#f4be82" fill-rule="nonzero" opacity="1" stroke="none"></path>
<path d="M18.0035 16L20.0035 16L20.0035 24L18.0035 24L18.0035 16Z" fill="#f4be82" fill-rule="nonzero" opacity="1" stroke="none"></path>
<path d="M20 14.0021L22 14.0021L22 15L20 15L20 14.0021Z" fill="#f4be82" fill-rule="nonzero" opacity="1" stroke="none"></path>
<path d="M21 14.0021L23 14.0021L23 16L21 16L21 14.0021Z" fill="#f4be82" fill-rule="nonzero" opacity="1" stroke="none"></path>
<path d="M17 20.9977L18 20.9977L18 24L17 24L17 20.9977Z" fill="#f4be82" fill-rule="nonzero" opacity="1" stroke="none"></path>
<path d="M18.0035 21.9953L18.9995 21.9953L18.9995 22.9953L18.0035 22.9953L18.0035 21.9953Z" fill="#e99b5d" fill-rule="nonzero" opacity="1" stroke="none"></path>
<path d="M26 25L28 25L28 26L26 26L26 25Z" fill="#e99b5d" fill-rule="nonzero" opacity="1" stroke="none"></path>
<path d="M25 24L28 24L28 24.9953L25 24.9953L25 24Z" fill="#303030" fill-rule="nonzero" opacity="1" stroke="none"></path>
<path d="M29 20.0023L31 20.0023L31 20.9977L29 20.9977L29 20.0023Z" fill="#303030" fill-rule="nonzero" opacity="1" stroke="none"></path>
<path d="M22 20L24 20L24 20.9953L22 20.9953L22 20Z" fill="#303030" fill-rule="nonzero" opacity="1" stroke="none"></path>
<path d="M29 21.9953L30 21.9953L30 23.9953L29 23.9953L29 21.9953Z" fill="#633a34" fill-rule="nonzero" opacity="1" stroke="none"></path>
<path d="M23 21.9953L24 21.9953L24 23.9953L23 23.9953L23 21.9953Z" fill="#633a34" fill-rule="nonzero" opacity="1" stroke="none"></path>
<path d="M29 22.9953L30 22.9953L30 23.9953L29 23.9953L29 22.9953Z" fill="#79544e" fill-rule="nonzero" opacity="1" stroke="none"></path>
<path d="M23 22.9953L24 22.9953L24 23.9953L23 23.9953L23 22.9953Z" fill="#79544e" fill-rule="nonzero" opacity="1" stroke="none"></path>
<path d="M19.0035 24L20.0035 24L20.0035 25L19.0035 25L19.0035 24Z" fill="#62370d" fill-rule="nonzero" opacity="1" stroke="none"></path>
<path d="M20.9956 26L21.9956 26L21.9956 27L20.9956 27L20.9956 26Z" fill="#895420" fill-rule="nonzero" opacity="1" stroke="none"></path>
<path d="M19.0035 25L21.0035 25L21.0035 26L19.0035 26L19.0035 25Z" fill="#895420" fill-rule="nonzero" opacity="1" stroke="none"></path>
<path d="M26 13L27 13L27 14L26 14L26 13Z" fill="#895420" fill-rule="nonzero" opacity="1" stroke="none"></path>
<path d="M28 13L29 13L29 14L28 14L28 13Z" fill="#895420" fill-rule="nonzero" opacity="1" stroke="none"></path>
<path d="M29 14.0021L31 14.0021L31 15.0021L29 15.0021L29 14.0021Z" fill="#62370d" fill-rule="nonzero" opacity="1" stroke="none"></path>
<path d="M32.001 14.0021L33.001 14.0021L33.001 16.0021L32.001 16.0021L32.001 14.0021Z" fill="#895420" fill-rule="nonzero" opacity="1" stroke="none"></path>
<path d="M30.9956 15.001L31.9956 15.001L31.9956 16.0005L30.9956 16.0005L30.9956 15.001Z" fill="#62370d" fill-rule="nonzero" opacity="1" stroke="none"></path>
<path d="M31 15.9953L32.001 15.9953L32.001 16.9953L31 16.9953L31 15.9953Z" fill="#895420" fill-rule="nonzero" opacity="1" stroke="none"></path>
<path d="M22 17.9953L23 17.9953L23 18.993L22 18.993L22 17.9953Z" fill="#62370d" fill-rule="nonzero" opacity="1" stroke="none"></path>
<path d="M25 18L29 18L29 19L25 19L25 18Z" fill="#62370d" fill-rule="nonzero" opacity="1" stroke="none"></path>
<path d="M28 17L30.9956 17L30.9956 18L28 18L28 17Z" fill="#62370d" fill-rule="nonzero" opacity="1" stroke="none"></path>
<path d="M23 17L25 17L25 17.9953L23 17.9953L23 17Z" fill="#62370d" fill-rule="nonzero" opacity="1" stroke="none"></path>
<path d="M21.9956 16.9953L22.9956 16.9953L22.9956 17.9953L21.9956 17.9953L21.9956 16.9953Z" fill="#895420" fill-rule="nonzero" opacity="1" stroke="none"></path>
<path d="M21 16L22 16L22 17L21 17L21 16Z" fill="#895420" fill-rule="nonzero" opacity="1" stroke="none"></path>
<path d="M20 15.001L21 15.001L21 16L20 16L20 15.001Z" fill="#895420" fill-rule="nonzero" opacity="1" stroke="none"></path>
<path d="M30 15.001L31 15.001L31 17L30 17L30 15.001Z" fill="#62370d" fill-rule="nonzero" opacity="1" stroke="none"></path>
<path d="M25 17L28 17L28 18L25 18L25 17Z" fill="#62370d" fill-rule="nonzero" opacity="1" stroke="none"></path>
<path d="M22 14.0021L30 14.0021L30 17L22 17L22 14.0021Z" fill="#62370d" fill-rule="nonzero" opacity="1" stroke="none"></path>
<path d="M21 14.0021L22 14.0021L22 16L21 16L21 14.0021Z" fill="#62370d" fill-rule="nonzero" opacity="1" stroke="none"></path>
<path d="M20 14.0021L21 14.0021L21 15L20 15L20 14.0021Z" fill="#62370d" fill-rule="nonzero" opacity="1" stroke="none"></path>
<path d="M19.0035 15L20.0035 15L20.0035 16L19.0035 16L19.0035 15Z" fill="#62370d" fill-rule="nonzero" opacity="1" stroke="none"></path>
<path d="M18.0035 16L21 16L21 20.9953L18.0035 20.9953L18.0035 16Z" fill="#62370d" fill-rule="nonzero" opacity="1" stroke="none"></path>
<path d="M29.9978 13L30.9956 13L30.9956 14L29.9978 14L29.9978 13Z" fill="#895420" fill-rule="nonzero" opacity="1" stroke="none"></path>
<path d="M21 17L22 17L22 20L21 20L21 17Z" fill="#62370d" fill-rule="nonzero" opacity="1" stroke="none"></path>
</g>
</svg></svg></g></svg>