<?xml version="1.0" standalone="no"?>
<!DOCTYPE svg PUBLIC "-//W3C//DTD SVG 20010904//EN"
 "http://www.w3.org/TR/2001/REC-SVG-20010904/DTD/svg10.dtd">
<svg version="1.0" xmlns="http://www.w3.org/2000/svg"
 width="1024.000000pt" height="1024.000000pt" viewBox="0 0 1024.000000 1024.000000"
 preserveAspectRatio="xMidYMid meet">
<metadata>
Created by potrace 1.14, written by Peter Selinger 2001-2017
</metadata>
<g transform="translate(0.000000,1024.000000) scale(0.100000,-0.100000)"
fill="#000000" stroke="none">
<path d="M5760 9600 l0 -320 -1920 0 -1920 0 0 -320 0 -320 -320 0 -320 0 0
-320 0 -320 -320 0 -320 0 0 -1600 0 -1600 960 0 960 0 0 320 0 320 320 0 320
0 0 -320 0 -320 640 0 640 0 0 320 0 320 -640 0 -640 0 0 320 0 320 320 0 320
0 0 320 0 320 640 0 640 0 0 -320 0 -320 1280 0 1280 0 0 320 0 320 640 0 640
0 0 320 0 320 318 2 317 3 3 318 2 317 320 0 320 0 0 640 0 640 -317 -2 -318
-3 -3 -320 -2 -320 -319 3 -319 3 -7 639 -7 640 -314 0 -314 0 0 -320 0 -320
-320 0 -320 0 0 320 0 320 -320 0 -320 0 0 -320 0 -320 -320 0 -320 0 0 320 0
320 -320 0 -320 0 0 -320z"/>
<path d="M7680 5120 l0 -320 640 0 640 0 0 320 0 320 -640 0 -640 0 0 -320z"/>
<path d="M3840 3520 l0 -640 320 0 320 0 0 640 0 640 -320 0 -320 0 0 -640z"/>
<path d="M7680 3520 l0 -640 320 0 320 0 0 640 0 640 -320 0 -320 0 0 -640z"/>
<path d="M1282 2243 l3 -638 638 -3 637 -2 0 -320 0 -320 318 2 317 3 0 315 0
315 -317 3 -318 2 0 320 0 320 -320 0 -320 0 0 320 0 320 -320 0 -320 0 2
-637z"/>
<path d="M5120 2560 l0 -320 960 0 960 0 0 320 0 320 -960 0 -960 0 0 -320z"/>
</g>
</svg>
